<?xml version="1.0" encoding="UTF-8" standalone="no"?>
<svg xmlns:dc="http://purl.org/dc/elements/1.1/" xmlns:cc="http://creativecommons.org/ns#" xmlns:rdf="http://www.w3.org/1999/02/22-rdf-syntax-ns#" xmlns:svg="http://www.w3.org/2000/svg" xmlns="http://www.w3.org/2000/svg" xmlns:sodipodi="http://sodipodi.sourceforge.net/DTD/sodipodi-0.dtd" xmlns:inkscape="http://www.inkscape.org/namespaces/inkscape" width="257.26248" height="67.081749" viewBox="0 0 205.80999 53.6654" id="svg2" version="1.1" inkscape:version="0.48.0 r9654" sodipodi:docname="Trinitron.eps(converted)-page1.svg">
  <metadata id="metadata20">
    <rdf:RDF>
      <cc:Work rdf:about="">
        <dc:format>image/svg+xml</dc:format>
        <dc:type rdf:resource="http://purl.org/dc/dcmitype/StillImage"/>
      </cc:Work>
    </rdf:RDF>
  </metadata>
  <defs id="defs18"/>
  <sodipodi:namedview pagecolor="#ffffff" bordercolor="#666666" borderopacity="1" objecttolerance="10" gridtolerance="10" guidetolerance="10" inkscape:pageopacity="0" inkscape:pageshadow="2" inkscape:window-width="1858" inkscape:window-height="1058" id="namedview16" showgrid="false" fit-margin-bottom="10" fit-margin-top="10" fit-margin-left="10" fit-margin-right="10" inkscape:zoom="1.2077445" inkscape:cx="128.18612" inkscape:cy="189.83417" inkscape:window-x="54" inkscape:window-y="-8" inkscape:window-maximized="1" inkscape:current-layer="svg2"/>
  <g transform="translate(8.0000002,8.0000002)" style="fill:#161413;fill-rule:evenodd;stroke:none" id="g8">
    <path d="m 0,5.997 c 0,0 9.8369,0 9.8369,0 0,0 0,31.0504 0,31.0504 0,0 8.4629,0 8.4629,0 0,0 0,-31.0504 0,-31.0504 0,0 10.1729,0 10.1729,0 0,0 0,-5.5488 0,-5.5488 0,0 -28.4727,0 -28.4727,0 0,0 0,5.5488 0,5.5488 z m 38.001,8.7998 c 0,0 0,-4.2314 0,-4.2314 0,0 -7.5664,0 -7.5664,0 0,0 0,26.482 0,26.482 0,0 7.5664,0 7.5664,0 0,0 0,-17.0377 0,-17.0377 1.2617,-2.8027 4.0078,-3.8398 7.8467,-3.9521 0,0 0,-6.1094 0,-6.1094 -2.1299,0.0566 -6.0254,0.7852 -7.8467,4.8486 z m 92.116,0 c 0,0 0,-4.2314 0,-4.2314 0,0 -7.538,0 -7.538,0 0,0 0,26.482 0,26.482 0,0 7.538,0 7.538,0 0,0 0,-17.0377 0,-17.0377 1.261,-2.8027 4.008,-3.8398 7.847,-3.9521 0,0 0,-6.1094 0,-6.1094 -2.13,0.0566 -6.025,0.7852 -7.847,4.8486 z M 50.2197,6.6132 c 0,0 7.5391,0 7.5391,0 0,0 0,-6.6132 0,-6.6132 0,0 -7.5391,0 -7.5391,0 0,0 0,6.6132 0,6.6132 z m 0,30.4342 c 0,0 7.5391,0 7.5391,0 0,0 0,-26.482 0,-26.482 0,0 -7.5391,0 -7.5391,0 0,0 0,26.482 0,26.482 z M 79.169,10.1728 c -2.7461,0.3926 -5.4649,1.4854 -8.6036,3.167 0,0 0,-2.7744 0,-2.7744 0,0 -7.7626,0 -7.7626,0 0,0 0,26.482 0,26.482 0,0 7.7626,0 7.7626,0 0,0 0,-14.1519 0,-14.1519 0,-4.3438 0.0567,-7.1182 4.1758,-7.1182 2.7461,0 3.8399,1.542 3.8399,6.2217 0,0 0,15.0484 0,15.0484 0,0 7.9306,0 7.9306,0 0,0 0,-18.3267 0,-18.3267 -0.1123,-8.0713 -3.2793,-9.1651 -7.3427,-8.5479 z m 103.298,0 c -2.746,0.3926 -5.465,1.4854 -8.604,3.167 0,0 0,-2.7744 0,-2.7744 0,0 -7.762,0 -7.762,0 0,0 0,26.482 0,26.482 0,0 7.762,0 7.762,0 0,0 0,-14.1519 0,-14.1519 0,-4.3438 0.057,-7.1182 4.176,-7.1182 2.746,0 3.84,1.542 3.84,6.2217 0,0 0,15.0484 0,15.0484 0,0 7.931,0 7.931,0 0,0 0,-18.3267 0,-18.3267 -0.113,-8.0713 -3.28,-9.1651 -7.343,-8.5479 z M 91.7803,6.6132 c 0,0 7.5096,0 7.5096,0 0,0 0,-6.6132 0,-6.6132 0,0 -7.5096,0 -7.5096,0 0,0 0,6.6132 0,6.6132 z m 0,30.4342 c 0,0 7.5096,0 7.5096,0 0,0 0,-26.482 0,-26.482 0,0 -7.5096,0 -7.5096,0 0,0 0,26.482 0,26.482 z m 21.3267,-8.4068 c 0,-3.7266 0,-13.3955 0,-13.3955 0,0 4.932,-0.0283 4.932,-0.0283 0,0 0,-4.6514 0,-4.6514 0,0 -4.82,0 -4.82,0 0,0 0,-8.5762 0,-8.5762 0,0 -8.016,0 -8.016,0 0,0 0.113,19.253 0.057,27.8565 -0.057,8.4067 12.919,7.2017 12.919,7.2017 0,0 0,-4.567 0,-4.567 0,0 -5.072,-0.057 -5.072,-3.8398 z m 38.87,-18.6924 c -9.305,0 -11.491,6.2217 -11.491,13.8721 0,7.6231 2.186,13.8451 11.491,13.8451 9.191,0 11.21,-6.166 11.21,-13.8451 0,-7.7061 -2.019,-13.8721 -11.21,-13.8721 z m -0.197,23.0092 c -4.456,0 -4.147,-4.6527 -4.147,-8.9125 0,-4.4561 -0.253,-9.3877 4.147,-9.3877 4.344,0 4.12,4.6514 4.12,9.1631 0,4.3164 0.224,9.1371 -4.12,9.1371 z" id="path10" inkscape:connector-curvature="0"/>
  </g>
</svg>